<svg width="24" height="24" viewBox="0 0 24 24" fill="none" xmlns="http://www.w3.org/2000/svg">
<path d="M18.25 3.75H5.75C4.64543 3.75 3.75 4.64543 3.75 5.75V18.25C3.75 19.3546 4.64543 20.25 5.75 20.25H18.25C19.3546 20.25 20.25 19.3546 20.25 18.25V5.75C20.25 4.64543 19.3546 3.75 18.25 3.75Z" stroke="#F7F2E8" stroke-width="1.5"/>
<path d="M8.25 10.75V16.25" stroke="#F7F2E8" stroke-width="1.5" stroke-linecap="round" stroke-linejoin="round"/>
<path d="M9.1875 8C9.1875 8.51777 8.76777 8.9375 8.25 8.9375C7.73223 8.9375 7.3125 8.51777 7.3125 8C7.3125 7.48223 7.73223 7.0625 8.25 7.0625C8.76777 7.0625 9.1875 7.48223 9.1875 8Z" fill="#F7F2E8" stroke="#F7F2E8" stroke-width="0.125"/>
<path d="M15.75 16.25V13C15.75 11.7574 14.7426 10.75 13.5 10.75C12.2574 10.75 11.25 11.7574 11.25 13V16.25" stroke="#F7F2E8" stroke-width="1.5" stroke-linecap="round"/>
</svg>
