<svg width="141" height="88" viewBox="0 0 141 88" fill="none" xmlns="http://www.w3.org/2000/svg">
<path d="M53.9636 1.31266L72.651 9.8067H101.273L103.643 5.69596C105.064 3.23175 103.348 0.272461 100.756 0.272461H54.1666C53.5325 0.272461 53.3795 1.04844 53.9663 1.31266H53.9636Z" fill="#003DA5"/>
<path d="M72.651 13.4541H119.271C119.81 13.4541 120.333 13.8769 120.333 14.5054C120.333 15.0617 119.952 15.426 119.568 15.5317L35.2121 38.3744C34.6614 38.5246 34.2748 37.8154 34.7393 37.4482L72.6538 13.4541H72.651Z" fill="#003DA5"/>
<path d="M49.0977 38.3969L79.7029 37.8267C82.6705 37.7711 86.1499 36.0606 87.7352 33.3071L91.4065 26.938L49.0977 38.3969Z" fill="#003DA5"/>
<path d="M27.6035 51.6992H23.8988L14.5176 69.7943H18.4281L20.108 66.4678H31.3416L32.4457 68.6539C32.9853 69.7247 33.4887 69.797 34.896 69.797H36.9876L27.6035 51.702V51.6992ZM21.7406 63.2276L25.7206 55.3427L29.7006 63.2276H21.7378H21.7406Z" fill="#003DA5"/>
<path d="M47.839 64.4392V69.7932H44.2095V51.8651C46.1174 51.815 48.6901 51.7427 50.8178 51.7427C54.9703 51.7427 57.7321 52.3323 59.3758 53.976C60.3799 55.0218 60.9083 56.4347 60.8332 57.881C60.8332 63.0597 56.7892 64.4698 51.0236 64.4698C50.2365 64.4698 48.768 64.4504 47.839 64.4392ZM47.839 61.1184C48.7541 61.1379 49.9055 61.149 50.701 61.149C53.0289 61.149 55.1649 61.0794 56.3025 59.9391C56.8254 59.4107 57.1007 58.6848 57.059 57.9422C57.0701 57.3275 56.8504 56.7323 56.4443 56.2678C55.3068 55.1303 53.6547 55.0607 50.701 55.0607C49.9055 55.0607 48.7569 55.0747 47.839 55.0913V61.1156V61.1184Z" fill="#003DA5"/>
<path d="M84.445 60.829C84.445 65.966 80.4038 70.1463 73.6119 70.1463C66.82 70.1463 62.7788 65.966 62.7788 60.829C62.7788 55.692 66.82 51.5117 73.6119 51.5117C80.4038 51.5117 84.445 55.692 84.445 60.829ZM73.6119 54.7714C69.4956 54.7714 66.5614 57.1577 66.5614 60.829C66.5614 64.5003 69.4956 66.8867 73.6119 66.8867C77.7282 66.8867 80.6625 64.5003 80.6625 60.829C80.6625 57.1577 77.7282 54.7714 73.6119 54.7714Z" fill="#003DA5"/>
<path d="M102.787 53.5237C100.818 52.2944 97.6194 51.5156 95.2025 51.5156C90.644 51.5156 87.0645 53.9103 87.0645 57.2451C87.0645 63.5224 99.4245 61.1945 99.4245 64.9214C99.4245 66.44 97.1633 67.0908 95.2331 67.0908C92.6521 67.0713 90.1378 66.2815 88.0073 64.8268L86.1494 67.5914C88.4023 69.1267 92.029 70.1502 94.916 70.1502C99.43 70.1502 103.207 68.0476 103.207 64.5265C103.207 58.1546 90.9026 60.1376 90.9026 56.6805C90.9026 55.2175 92.9413 54.5778 95.1385 54.5778C97.2495 54.6084 99.3104 55.2342 101.079 56.3884L102.79 53.5265L102.787 53.5237Z" fill="#003DA5"/>
<path d="M121.839 51.8511H104.509V55.1858H111.296V69.7931H114.925V55.1858H121.839V51.8511Z" fill="#003DA5"/>
<path d="M124.117 51.8511V68.5026C124.117 69.2508 124.579 69.7931 125.413 69.7931H140.026V66.4751H127.747V62.3031H138.711V58.9851H127.747V55.1858H139.701V51.8539H124.117" fill="#003DA5"/>
<path d="M3.89715 51.8511H0.267578V68.5026C0.267578 69.2508 0.729272 69.7931 1.56366 69.7931H12.4079L14.1295 66.4751H3.89437V51.8539L3.89715 51.8511Z" fill="#003DA5"/>
<path d="M46.1864 82.6608V86.5435C44.195 87.8034 41.6084 88.3458 39.3611 87.5503C36.8218 86.7438 35.5063 83.8484 36.5854 81.4371C38.0818 78.0161 43.1771 77.8909 45.8777 79.8796L44.9042 81.3286C43.038 79.9491 39.617 79.6904 38.4461 82.0323C37.9316 83.1364 38.1958 84.63 39.1581 85.4032C40.5933 86.5658 42.8183 86.3711 44.3925 85.545V84.3519H41.6362V82.6608H46.1864Z" fill="#003DA5"/>
<path d="M58.2422 87.7368H56.6653C56.1368 87.7312 55.7725 87.6423 55.461 87.264L53.4835 84.8554H51.1722V87.7396H49.2754V78.77C51.6923 78.8145 55.3358 78.2054 57.1548 79.8074C57.9307 80.4554 58.1032 81.8794 57.7583 82.839C57.4246 83.8235 56.5373 84.3548 55.5639 84.6273L58.2422 87.7424V87.7368ZM52.6852 83.2005C53.6392 83.1644 54.8213 83.3118 55.5806 82.661C56.0339 82.2327 56.0979 81.4233 55.6445 80.9616C55.13 80.4832 54.4069 80.4693 53.6976 80.4387C52.9328 80.4332 51.9705 80.422 51.1722 80.4443V83.1866C51.5866 83.2033 52.282 83.1978 52.6852 83.2005Z" fill="#003DA5"/>
<path d="M70.9329 83.2471C70.9329 85.9866 68.7107 87.9141 65.5094 87.9141C61.9744 87.9141 60.0859 85.6807 60.0859 83.2471C60.0859 80.8134 62.0356 78.5801 65.5094 78.5801C68.9833 78.5801 70.9329 80.7773 70.9329 83.2471ZM65.5178 80.285C63.6488 80.285 62.0634 81.3335 62.0634 83.2471C62.0634 85.1606 63.5431 86.2036 65.5178 86.2091C67.3618 86.2119 68.961 85.1745 68.961 83.2471C68.961 81.5088 67.5982 80.285 65.5178 80.285Z" fill="#003DA5"/>
<path d="M77.9821 87.9141C75.3565 87.9141 73.5737 86.5374 73.5737 83.8395V78.7637H75.4706V83.6838C75.4706 85.3052 76.2799 86.2092 77.9821 86.2092C79.6842 86.2092 80.5075 85.4026 80.5075 83.6838V78.7637H82.4043V83.8395C82.4043 86.7682 80.335 87.9141 77.9821 87.9141Z" fill="#003DA5"/>
<path d="M87.3871 85.0573V87.7357H85.4902V78.766C90.1544 78.5547 93.8257 78.5074 93.8257 81.8616C93.8257 85.2158 89.7373 85.1018 87.3871 85.0573ZM87.3871 83.3273C88.113 83.3301 88.8611 83.344 89.5732 83.3329C90.8553 83.3162 91.8566 82.9908 91.8566 81.8366C91.8566 80.5183 90.2824 80.471 89.7261 80.4487C89.0308 80.4209 88.266 80.4153 87.3871 80.4432V83.3273Z" fill="#003DA5"/>
<path d="M103.917 78.7637V80.4936H98.0238V82.2876H103.431V84.0175H98.0238V86.0034H104.084V87.7333H96.7806C96.3216 87.7333 96.127 87.4301 96.127 87.0936V78.7637H103.917Z" fill="#003DA5"/>
</svg>
