<svg xmlns="http://www.w3.org/2000/svg" width="313" height="22" viewBox="0 0 313 22" fill="none"><path fill="#F8E7D5" d="M13.794 5.5c0 3.683-2.922 5.198-7.04 5.198H5.071v5.25c0 .276.185.506.645.531l1.842.09v.76H.998v-.78l1.311-.089c.486-.025.646-.14.646-.53V2.045c0-.39-.16-.505-.646-.53l-1.311-.09v-.78S5.648.6 6.753.6c4.119 0 7.041 1.196 7.041 4.905v-.007ZM5.072 1.681v7.942h2.027c2.737 0 4.418-1.266 4.418-4.029 0-2.762-1.681-3.913-4.418-3.913H5.072ZM18.793 7.226v8.723c0 .435.185.486.665.53l.946.09v.761h-5.199v-.761l.966-.09c.46-.044.646-.09.646-.53V6.4c0-.37-.115-.53-.646-.6l-.991-.116V4.95h3.638l-.025 2.276ZM16.81.186h1.983v2.737H16.81V.186ZM31.155 6.12c.62.665.992 1.586.992 2.788 0 2.417-1.701 4.374-4.72 4.374-.415 0-.831-.045-1.24-.115-.717.115-1.471.39-1.471 1.062 0 .6.46.92 2.046 1.01l2.948.185c3.268.205 4.189 1.267 4.189 2.673 0 1.868-1.797 3.799-6.376 3.799-3.293 0-5.455-1.196-5.455-2.903 0-1.222 1.426-1.887 2.948-2.187-1.656-.39-2.097-1.196-2.097-2.002 0-.966.965-1.567 2.417-1.886-1.567-.601-2.718-1.912-2.718-3.824 0-2.993 2.347-4.349 4.905-4.349.78 0 1.567.14 2.232.416l4.809-.205v1.177h-3.409V6.12Zm-5.429 10.82c-1.106.345-2.027.92-2.027 1.816 0 1.292 1.266 1.957 4.003 1.957 2.577 0 4.49-.69 4.49-2.046 0-.966-.621-1.356-2.763-1.497l-2.948-.16-.761-.07h.006Zm4.515-8.013c0-2.001-1.08-3.152-2.718-3.152-1.726 0-2.903.99-2.903 3.293 0 2.098 1.451 3.153 2.903 3.153 1.612 0 2.718-1.177 2.718-3.294ZM44.047 15.168h-.045c-.735 1.522-1.931 2.462-3.913 2.462-2.789 0-3.409-2.232-3.409-4.144V6.401c0-.371-.115-.53-.646-.601l-.991-.115v-.736h3.639l-.026 2.277v5.78c0 2.188.55 3.339 2.328 3.339 1.125 0 3.037-.85 3.037-4.048V6.4c0-.371-.14-.53-.665-.601l-.965-.115v-.736h3.638l-.025 2.277v8.633c0 .415.185.46.646.53l.965.09v.761l-3.523.186-.045-2.258ZM58.8 13.486h2.002c-.46 2.763-2.903 4.144-5.385 4.144-3.888 0-5.825-2.993-5.825-6.446 0-3.754 2.372-6.446 5.825-6.446 2.673 0 5.545 1.868 5.545 6.536h-9.28c.071 3.018 1.107 5.224 3.825 5.224 1.867 0 3.082-1.08 3.293-3.018v.006Zm-7.066-3.312h7.092c-.045-3.063-1.612-4.349-3.453-4.349-1.842 0-3.453 1.471-3.639 4.349ZM70.453 6.12h-3.754v8.012c0 1.612.435 1.868 1.701 1.868h1.931v1.336H67.89c-2.443 0-3.178-.53-3.178-3.063V6.12h-2.258V4.943h2.257V1.01h1.983v3.94h3.754v1.176l.006-.006ZM81.156 8.908c0 4.95 2.302 7.501 5.454 7.501 2.462 0 5.2-1.176 5.2-5.11v-1.06h-3.428V9.156h5.41v8.173H92.57l-.486-2.462c-.895 1.452-2.692 2.763-5.614 2.763-4.88 0-7.687-3.569-7.687-8.723 0-5.154 3.134-8.652 7.917-8.652 3.613 0 6.561 2.001 7.156 5.41h-2.187c-.416-2.807-2.213-4.26-4.95-4.26-3.082 0-5.57 2.444-5.57 7.502h.007ZM104.984 8.722c0-2.212-.966-2.922-2.737-2.922-2.162 0-2.718 1.336-2.852 2.762h-2.002c.16-2.327 2.162-3.824 4.924-3.824 3.198 0 4.79 1.126 4.745 4.119-.025 1.611-.07 2.647-.07 3.939 0 1.292-.026 1.867.045 3.063.025.415.115.46.601.53l.991.09v.761l-3.313.186-.089-2.328h-.045c-.691 1.426-1.982 2.532-4.259 2.532-2.276 0-3.888-1.31-3.888-3.363 0-2.923 3.479-3.614 7.962-4.17V8.716l-.013.006Zm.07 2.392c-3.178.32-5.89.69-5.89 3.082 0 1.222.921 2.213 2.507 2.213 1.912 0 3.383-1.337 3.383-4.534v-.761ZM114.096.186l-.026 2.302v13.46c0 .436.186.487.665.532l.947.089v.761h-5.205v-.761l.946-.09c.486-.044.665-.09.665-.53V1.567c0-.416-.185-.46-.665-.531l-.946-.09v-.76H114.096ZM121.559.186l-.026 2.302v13.46c0 .436.186.487.665.532l.947.089v.761h-5.206v-.761l.947-.09c.486-.044.665-.09.665-.53V1.567c0-.416-.186-.46-.665-.531l-.947-.09v-.76H121.559ZM133.531 8.722c0-2.212-.966-2.922-2.737-2.922-2.162 0-2.718 1.336-2.852 2.762h-2.002c.16-2.327 2.162-3.824 4.924-3.824 3.198 0 4.79 1.126 4.745 4.119-.026 1.611-.07 2.647-.07 3.939 0 1.292-.026 1.867.044 3.063.026.415.116.46.602.53l.991.09v.761l-3.313.186-.089-2.328h-.045c-.691 1.426-1.982 2.532-4.259 2.532-2.276 0-3.888-1.31-3.888-3.363 0-2.923 3.479-3.614 7.962-4.17V8.716l-.013.006Zm.07 2.392c-3.178.32-5.89.69-5.89 3.082 0 1.222.921 2.213 2.507 2.213 1.912 0 3.383-1.337 3.383-4.534v-.761ZM150.609 15.949c0 .435.186.486.665.53l.947.09v.761h-5.206v-.76l.966-.09c.46-.045.646-.09.646-.531v-6.58c0-2.187-.691-3.339-2.488-3.339-1.125 0-3.223.851-3.223 4.074v5.845c0 .435.186.486.665.53l.947.09v.761h-5.206v-.76l.966-.09c.46-.045.646-.09.646-.531V6.4c0-.37-.115-.53-.646-.6l-.991-.116V4.95h3.568l.026 2.257h.045c.735-1.496 2.116-2.462 4.073-2.462 2.852 0 3.594 2.232 3.594 4.144v7.066l.006-.006ZM164.999.186l-.026 2.302v13.371c0 .416.186.46.646.53l.966.09v.761l-3.383.186-.09-2.347h-.044c-.761 1.452-2.002 2.558-4.004 2.558-2.877 0-5.039-2.648-5.039-6.446 0-3.799 2.443-6.446 5.385-6.446 1.797 0 3.018 1.126 3.594 2.232h.044c-.044-1.311-.044-1.797-.044-1.931v-3.46c0-.416-.186-.46-.665-.505l-1.196-.115v-.78h3.869-.013Zm-5.269 5.8c-2.002 0-3.569 1.867-3.569 5.199 0 3.331 1.586 5.224 3.498 5.224 1.637 0 3.498-1.407 3.498-5.224 0-3.818-1.541-5.2-3.427-5.2ZM190.618 16.62l-1.337 1.24-2.903-3.222c-1.701 2.097-3.638 2.992-5.64 2.992-3.018 0-5.595-1.752-5.595-4.924 0-2.737 2.506-4.4 4.834-5.205l-.07-.09c-1.222-1.38-2.302-2.736-2.302-4.258 0-1.842 1.701-3.153 4.578-3.153 2.098 0 4.099.876 4.099 2.833 0 2.302-2.072 3.543-4.003 4.463l4.489 5.04c.665-.921 1.266-2.028 1.887-3.249.601-1.151.55-1.567-.23-1.611l-1.337-.07V6.67h5.525v.735l-.946.07c-.832.07-1.222.806-1.727 1.702-.435.83-1.541 2.647-2.443 3.984l3.108 3.453.013.006Zm-9.624-.205c1.451 0 3.178-.55 4.674-2.557l-5.154-5.775c-2.001.78-3.223 2.187-3.223 4.374s1.452 3.958 3.703 3.958ZM182.1.857c-1.356 0-2.558.665-2.558 2.097 0 1.036.78 2.117 2.213 3.754l.07.09c2.117-1.01 2.807-2.232 2.807-3.684 0-1.637-1.176-2.257-2.532-2.257Z"></path><path fill="#DBFC87" d="M200.656 6.516c-.16-.505-.275-.716-.85-.761l-.62-.045v-.76h5.083v.76l-.825.07c-.53.045-.761.116-.601.62l2.737 8.308 2.693-7.342c.319-.876.575-1.522-.506-1.611l-.55-.045v-.76h4.349v.76l-.601.045c-.691.045-.876.3-1.222 1.177l-4.003 10.43h-1.081l-4.003-10.84v-.006ZM218.177 17.63c-3.312 0-5.781-2.577-5.781-6.446 0-3.869 2.462-6.446 5.781-6.446 3.319 0 5.775 2.577 5.775 6.446 0 3.87-2.443 6.446-5.775 6.446Zm0-1.125c2.047 0 3.639-1.682 3.639-5.314 0-3.633-1.586-5.314-3.639-5.314-2.052 0-3.638 1.681-3.638 5.314 0 3.632 1.586 5.314 3.638 5.314ZM234.658 15.168h-.045c-.735 1.522-1.931 2.462-3.913 2.462-2.788 0-3.409-2.232-3.409-4.144V6.401c0-.371-.115-.53-.646-.601l-.991-.115v-.736h3.639l-.026 2.277v5.78c0 2.188.55 3.339 2.322 3.339 1.125 0 3.037-.85 3.037-4.048V6.4c0-.371-.141-.53-.665-.601l-.965-.115v-.736h3.638l-.025 2.277v8.633c0 .415.185.46.645.53l.966.09v.761l-3.523.186-.045-2.258h.006ZM245.574 16.505c1.796 0 3.178-.896 3.178-2.143 0-1.31-1.107-2.001-3.153-2.417l-1.496-.3c-2.072-.416-3.498-1.586-3.498-3.454 0-2.046 1.816-3.453 4.674-3.453 2.533 0 4.675 1.126 5.02 3.543h-2.001c-.186-1.656-1.522-2.443-3.198-2.443-1.407 0-2.737.736-2.737 2.047 0 1.08.921 1.726 2.418 2.027l1.355.275c2.347.505 4.419 1.426 4.419 3.613 0 2.442-2.161 3.824-5.02 3.824-3.568 0-5.18-1.887-5.365-4.17h2.027c.205 2.002 1.496 3.038 3.383 3.038l-.006.013ZM252.801 14.593h2.762v2.737h-2.762v-2.737Z"></path><path class="leaf" fill="#F8E7D5" d="M300.383 11.888c.41-.377.755-.345 1.829.608 1.247 1.112 3.294 2.308 5.231 1.771 1.369-.377 1.599-1.682 1.074-2.41-.869-1.21-2.001-2.181-1.95-2.642.096-.876.895-1.125 2.942-1.656 1.023-.269 3.127-1.01 2.673-2.238-.64-1.714-5.455-.883-6.075-.742-.621.147-.928.217-1.119-.102-.192-.32-.045-.896.185-2.06.198-1.016-.492-2.781-2.564-2.123-1.554.493-2.571 2.066-3.479 4.38-.435 1.612-1.1 2.086-1.727 2.105-.62.013-.812-.953-.601-1.976.211-1.03-.505-2.737-2.57-2.079-1.554.493-2.43 2.443-3.083 4.739-.742 2.609-1.375 3.85-3.056 4.77-2.053 1.394-6.088 2.443-7.917 3.064.115.268.62.55.722.729 5.628-2.06 10.104-4.694 15.911-7.265 5.806-2.577 11.824-3.095 12.386-3.12-5.672 1.406-9.387 2.813-11.843 3.785-3.632 1.445-7.558 3.447-10.826 5.628 1.912-1.05 2.66-1.625 4.598-1.638 1.937-.012 2.813.25 4.732 2.072 1.918 1.823 4.361 2.15 5.403 1.452.915-.608 1.151-1.612.039-2.827-1.113-1.208-1.318-1.854-.908-2.225"></path></svg>
