<svg xmlns="http://www.w3.org/2000/svg" width="497" height="107" fill="none" viewBox="0 0 497 107"><path fill="#3A5469" d="M5.52 19.28c0-9.89 0-11.67-.13-13.7-.13-2.16-.63-3.17-2.73-3.62-.51-.13-1.59-.19-2.16-.19-.25 0-.51-.13-.51-.38 0-.38.32-.51 1.01-.51 2.85 0 6.66.19 7.17.19 1.39 0 5.07-.19 7.99-.19 7.93 0 10.78 2.66 11.8 3.62 1.39 1.33 3.17 4.19 3.17 7.55 0 9.01-6.6 15.1-15.6 15.1-.32 0-1.01 0-1.33-.06-.32 0-.7-.13-.7-.44 0-.51.38-.57 1.71-.57 6.15 0 10.97-4.5 10.97-10.34 0-2.09-.19-6.34-3.55-9.77-3.36-3.42-7.23-3.17-8.69-3.17-1.08 0-2.16.13-2.73.38-.38.13-.51.57-.51 1.21v26.07c0 6.09 0 11.1.32 13.76.19 1.84.57 3.23 2.47 3.49.89.13 2.28.25 2.85.25.38 0 .51.19.51.38 0 .32-.32.51-1.01.51-3.49 0-7.48-.19-7.8-.19-.19 0-4.19.19-6.09.19-.7 0-1.02-.13-1.02-.51 0-.19.13-.38.51-.38.57 0 1.33-.13 1.9-.25 1.27-.25 1.59-1.65 1.84-3.49.32-2.66.32-7.67.32-13.76V19.3l.02-.02ZM46.23 19.28c0-9.89 0-11.67-.13-13.7-.13-2.16-.63-3.17-2.73-3.62-.51-.13-1.59-.19-2.16-.19-.25 0-.51-.13-.51-.38 0-.38.32-.51 1.01-.51 2.85 0 6.85.19 7.17.19.7 0 5.52-.19 7.48-.19 4 0 8.25.38 11.61 2.79 1.59 1.14 4.38 4.25 4.38 8.63 0 4.69-1.97 9.39-7.67 14.65 5.2 6.66 9.51 12.3 13.19 16.24 3.43 3.62 6.15 4.31 7.74 4.57 1.21.19 2.09.19 2.47.19.32 0 .57.19.57.38 0 .38-.38.51-1.52.51h-4.5c-3.55 0-5.14-.32-6.79-1.21-2.73-1.46-4.95-4.57-8.56-9.32-2.66-3.49-5.64-7.74-6.91-9.39-.25-.25-.44-.38-.82-.38l-7.8-.13c-.32 0-.44.19-.44.51v1.52c0 6.09 0 11.1.32 13.76.19 1.84.57 3.23 2.47 3.49.89.13 2.28.25 2.85.25.38 0 .51.19.51.38 0 .32-.32.51-1.02.51-3.49 0-7.48-.19-7.8-.19-.06 0-4.06.19-5.96.19-.7 0-1.02-.13-1.02-.51 0-.19.13-.38.51-.38.57 0 1.33-.13 1.9-.25 1.27-.25 1.59-1.65 1.84-3.49.32-2.66.32-7.67.32-13.76V19.28Zm5.08 5.52c0 .32.13.57.44.76.95.57 3.87 1.01 6.66 1.01 1.52 0 3.3-.19 4.76-1.21 2.22-1.52 3.87-4.95 3.87-9.77 0-7.93-4.19-12.68-10.97-12.68-1.9 0-3.62.19-4.25.38-.32.13-.51.38-.51.76V24.8ZM94.06 19.28c0-9.89 0-11.67-.13-13.7-.13-2.16-.63-3.17-2.73-3.62-.51-.13-1.59-.19-2.16-.19-.25 0-.51-.13-.51-.38 0-.38.32-.51 1.01-.51 2.85 0 6.85.19 7.17.19.44 0 13.07 0 14.52-.06 1.2-.06 2.22-.19 2.73-.32.32-.06.57-.32.89-.32.19 0 .25.25.25.57 0 .44-.32 1.21-.51 2.98-.06.63-.19 3.43-.32 4.19-.06.32-.19.7-.44.7-.38 0-.51-.32-.51-.82 0-.44-.06-1.52-.38-2.28-.45-1.02-1.08-1.78-4.5-2.16-1.08-.13-7.99-.19-8.69-.19-.25 0-.38.19-.38.63V21.5c0 .44.06.63.38.63.82 0 8.63 0 10.09-.13 1.52-.13 2.41-.25 2.98-.89.44-.51.7-.82.95-.82.19 0 .32.13.32.51s-.32 1.46-.51 3.55c-.13 1.27-.25 3.62-.25 4.06 0 .51 0 1.21-.44 1.21-.32 0-.45-.25-.45-.57 0-.63 0-1.27-.25-2.09-.25-.89-.82-1.97-3.3-2.22-1.71-.19-7.99-.32-9.07-.32-.32 0-.44.19-.44.44v5.58c0 2.16-.06 9.51 0 10.85.19 4.38 1.14 5.2 7.36 5.2 1.65 0 4.44 0 6.09-.7 1.65-.7 2.41-1.97 2.85-4.57.13-.7.25-.95.57-.95.38 0 .38.51.38.95 0 .51-.51 4.82-.82 6.15-.44 1.65-.95 1.65-3.42 1.65-9.58 0-13.83-.38-15.67-.38-.32 0-4.31.19-6.22.19-.7 0-1.02-.13-1.02-.51 0-.19.13-.38.51-.38.57 0 1.33-.13 1.9-.25 1.27-.25 1.59-1.65 1.84-3.49.32-2.66.32-7.67.32-13.76V19.28h.01ZM133.19 42.88c-6.15-5.52-7.68-12.75-7.68-18.77 0-4.25 1.46-11.67 7.1-17.31 3.81-3.81 9.58-6.79 19.34-6.79 2.54 0 6.09.19 9.2.76 2.41.44 4.44.82 6.47.95.7.06.82.32.82.7 0 .51-.19 1.27-.32 3.55-.13 2.09-.13 5.58-.19 6.53-.06.95-.19 1.33-.57 1.33-.44 0-.51-.44-.51-1.33 0-2.47-1.02-5.07-2.66-6.47-2.22-1.9-7.1-3.62-12.68-3.62-8.44 0-12.37 2.47-14.59 4.63-4.63 4.44-5.71 10.09-5.71 16.55 0 12.11 9.32 23.21 22.9 23.21 4.76 0 8.5-.57 11.04-3.17 1.33-1.39 2.16-4.19 2.35-5.33.13-.7.25-.95.64-.95.32 0 .44.44.44.95 0 .44-.76 5.96-1.39 8.12-.38 1.21-.51 1.33-1.65 1.84-2.54 1.01-7.36 1.46-11.42 1.46-9.52 0-15.92-2.35-20.93-6.85v.01ZM189.13 30.44c0 6.09 0 11.1.32 13.76.19 1.84.57 3.23 2.47 3.49.89.13 2.28.25 2.86.25.38 0 .51.19.51.38 0 .32-.32.51-1.02.51-3.49 0-7.48-.19-7.8-.19-.32 0-4.31.19-6.22.19-.7 0-1.01-.13-1.01-.51 0-.19.13-.38.51-.38.57 0 1.33-.13 1.9-.25 1.27-.25 1.59-1.65 1.84-3.49.32-2.66.32-7.67.32-13.76V19.28c0-9.89 0-11.67-.13-13.7-.13-2.16-.76-3.23-2.16-3.55-.7-.19-1.52-.25-1.97-.25-.25 0-.51-.13-.51-.38 0-.38.32-.51 1.02-.51 2.09 0 6.09.19 6.41.19.32 0 4.31-.19 6.22-.19.7 0 1.02.13 1.02.51 0 .25-.25.38-.51.38-.45 0-.82.06-1.59.19-1.71.32-2.22 1.4-2.35 3.62-.13 2.03-.13 3.81-.13 13.7v11.16-.01ZM207.64 48.01c-.89-.44-.95-.7-.95-2.41 0-3.17.25-5.71.32-6.72.06-.7.19-1.01.51-1.01.38 0 .45.19.45.7 0 .57 0 1.46.19 2.35.95 4.69 5.14 6.47 9.39 6.47 6.09 0 9.07-4.38 9.07-8.44 0-4.38-1.84-6.91-7.29-11.42l-2.86-2.35c-6.72-5.52-8.24-9.45-8.24-13.76C208.23 4.63 213.3 0 221.36 0c2.47 0 4.31.25 5.9.63 1.2.25 1.71.32 2.22.32.51 0 .63.13.63.44s-.25 2.41-.25 6.72c0 1.01-.13 1.46-.45 1.46-.38 0-.44-.32-.51-.82-.06-.76-.45-2.47-.82-3.17-.38-.7-2.09-3.36-7.93-3.36-4.38 0-7.8 2.73-7.8 7.36 0 3.62 1.78 5.77 7.74 10.66l1.78 1.4c7.48 5.9 9.26 9.83 9.26 14.9 0 2.6-1.02 7.42-5.39 10.53-2.73 1.9-6.15 2.66-9.58 2.66-2.98 0-5.9-.44-8.5-1.71l-.02-.01ZM253.18 30.44c0 6.09 0 11.1.32 13.76.19 1.84.57 3.23 2.47 3.49.89.13 2.28.25 2.86.25.38 0 .51.19.51.38 0 .32-.32.51-1.02.51-3.49 0-7.48-.19-7.8-.19-.32 0-4.31.19-6.22.19-.7 0-1.01-.13-1.01-.51 0-.19.13-.38.51-.38.57 0 1.33-.13 1.9-.25 1.27-.25 1.59-1.65 1.84-3.49.32-2.66.32-7.67.32-13.76V19.28c0-9.89 0-11.67-.13-13.7-.13-2.16-.76-3.23-2.16-3.55-.7-.19-1.52-.25-1.97-.25-.25 0-.51-.13-.51-.38 0-.38.32-.51 1.02-.51 2.09 0 6.09.19 6.41.19.32 0 4.31-.19 6.22-.19.7 0 1.02.13 1.02.51 0 .25-.25.38-.51.38-.45 0-.82.06-1.59.19-1.71.32-2.22 1.4-2.35 3.62-.13 2.03-.13 3.81-.13 13.7v11.16-.01ZM291.94 0c14.27 0 24.93 9.01 24.93 23.78 0 14.77-10.02 25.94-25.31 25.94-17.38 0-24.61-13.51-24.61-24.93 0-10.28 7.48-24.8 24.99-24.8V0Zm1.33 47.32c5.71 0 17.5-3.3 17.5-21.75 0-15.22-9.26-23.4-19.28-23.4-10.59 0-18.52 6.98-18.52 20.87 0 14.78 8.88 24.29 20.3 24.29v-.01ZM333.61 40.21c.13 5.2.76 6.85 2.47 7.36 1.2.32 2.6.38 3.17.38.32 0 .51.13.51.38 0 .38-.38.51-1.14.51-3.62 0-6.15-.19-6.72-.19-.57 0-3.23.19-6.09.19-.64 0-1.02-.06-1.02-.51 0-.25.19-.38.51-.38.51 0 1.65-.06 2.6-.38 1.59-.44 1.9-2.28 1.9-8.06l.06-36.34c0-2.47.19-3.17.7-3.17s1.59 1.39 2.22 2.03c.95 1.08 10.4 11.29 20.17 21.75 6.28 6.72 13.19 14.46 15.22 16.55l-.7-32.22c-.06-4.12-.51-5.52-2.47-6.03-1.14-.25-2.6-.32-3.11-.32-.44 0-.51-.19-.51-.44 0-.38.51-.44 1.27-.44 2.86 0 5.9.19 6.6.19.7 0 2.79-.19 5.39-.19.7 0 1.14.06 1.14.44 0 .25-.25.44-.7.44-.32 0-.76 0-1.52.19-2.09.44-2.35 1.84-2.35 5.64l-.13 37.17c0 4.19-.13 4.5-.57 4.5-.51 0-1.27-.7-4.63-4.06-.7-.63-9.83-9.96-16.55-17.19a1272.53 1272.53 0 0 1-16.55-18.2l.82 30.38.01.02Z"></path><path fill="#AF8913" d="M359.53 92.14v4.71c0 4.12.23 8.01 5.24 8.01 4.24 0 7.48-3.06 8.65-7.07h1.47c-1.53 5.71-5.59 8.24-11.3 8.24-6.42 0-11.07-6.18-11.07-12.19 0-6.47 5.3-12.36 11.71-12.36 5.47 0 10.54 3.77 10.54 9.6 0 1.23-.53 1.06-1.47 1.06h-13.78.01Zm8.6-1.47c0-3.94 1-8-4.24-8-4.89 0-4.36 4.3-4.36 8h8.6ZM392.45 1.05h103.82L392.45 104.87V1.05ZM73.97 81.84h5.59v1.47h-5.59v20.37h5.06v1.47H63.02v-1.47h4.59V83.31H62.9v-1.47h4.71c0-5.89 1.12-13.83 7.71-16.31.94-.35 1.94-.59 3-.59 2.71 0 5.95 1.47 5.95 4.65 0 1.83-1.35 3.06-3.18 3.06-1.59 0-2.77-1.06-2.77-2.65 0-1.12.65-1.83 1.53-2.41.47-.3 0-1.47-1.59-1.47-2.77 0-4.3 4.53-4.3 6.53v9.18l.01.01ZM96.51 81.48c6.65 0 12.36 5.83 12.36 12.42s-5.71 12.13-12.36 12.13c-6.65 0-12.36-5.53-12.36-12.13 0-6.6 5.71-12.42 12.36-12.42Zm0 1.18c-5.77 0-5.36 4.59-5.36 11.24 0 7.65.12 10.95 5.36 10.95s5.36-3.3 5.36-10.95c0-6.65.41-11.24-5.36-11.24ZM123.24 88.14c1.88-3.24 3.94-6.65 8.24-6.65 2.3 0 4.71 1.18 4.71 3.83 0 2.3-1.59 3.3-3.71 3.3-1.41 0-2.83-1.23-2.83-2.71 0-.23.06-.59.12-.88.18-.94.23-1.3-.41-1.3-1.12 0-1.71.59-2.47 1.36-2.24 2.24-3.65 5.41-3.65 13.13v5.48h5.3v1.47h-15.13v-1.47h3.47V83.33h-3.89v-1.47c3.06.12 6.65-.12 10.24-.24v6.54l.01-.02ZM165.71 87.25h.12c1.47-3.53 4.18-5.77 8.18-5.77 3.24 0 5.71 1.77 6.77 4.89 1.71-2.88 4.24-4.89 7.65-4.89 7.71 0 7.06 4.77 7.06 10.83v11.36h3.77v1.47h-13.13v-1.47h3.12V87.95c0-1.65.29-4.36-2.47-4.36-4.42 0-6.18 5.12-6.18 8.71v11.36h3.24v1.47H171.3v-1.47h3.06V89.59c0-2.71.71-6-2.83-6-2.88 0-5.83 4.47-5.83 8.83v11.24h3.24v1.47h-13.3v-1.47h3.83V83.29h-4.06v-1.47c3 .12 6.59-.12 10.3-.24v5.67ZM209.09 92.14v4.71c0 4.12.23 8.01 5.24 8.01 4.24 0 7.48-3.06 8.65-7.07h1.47c-1.53 5.71-5.59 8.24-11.3 8.24-6.42 0-11.07-6.18-11.07-12.19 0-6.47 5.3-12.36 11.71-12.36 5.47 0 10.54 3.77 10.54 9.6 0 1.23-.53 1.06-1.47 1.06h-13.78.01Zm8.59-1.47c0-3.94 1-8-4.24-8-4.89 0-4.36 4.3-4.36 8h8.6ZM247.17 101.15h-.12c-1.41 3.12-4.18 4.89-7.89 4.89-3.12 0-4.71-1.12-6.95-3.06-2.35-2.06-3.53-6-3.53-9.07 0-5.83 5.12-12.42 11.24-12.42 3.83 0 6.42 2.23 7.12 5h.12V67.3h-4.24v-1.47c3.59.12 7.12-.23 10.6-.88v38.74h4.24v1.47c-3.41 0-6.83-.18-10.6.47v-4.47l.01-.01Zm-11.3-1.59c0 2.83 1 5.3 4.24 5.3 3.59 0 7.06-3.83 7.06-7.36v-6.24c0-3.71-2.41-8.6-6.95-8.6-3.89 0-4.36 3.06-4.36 6.42v10.48h.01ZM259.76 105.15v-1.47h4.3V83.31h-4.3v-1.47c3.47.12 7.06-.12 10.66-.23v22.08h4.36v1.47h-15.01l-.01-.01Zm7.01-30.85c-1.83 0-3.18-1.83-3.18-3.53 0-1.59 1.59-3.18 3.18-3.18 1.71 0 3.47 1.41 3.47 3.18 0 2-1.47 3.53-3.47 3.53ZM284.6 97.38c0 5.59 1.3 7.48 5.18 7.48 4.24 0 7.06-2.94 8.12-7.06h1.35c-.82 5.12-4.83 8.24-9.83 8.24-7.18 0-12.01-5.71-11.72-12.77.12-2.89 1.71-6.83 3.94-8.77 2.41-2.12 5.06-3 8.3-3 3.53 0 8.77 1.59 8.77 6 0 1.59-1.24 3.42-2.94 3.42-1.83 0-3.65-.77-3.65-3 0-1.77 1.83-2.12 1.83-3.18 0-1.65-3.18-2.06-4.12-2.06-5.71 0-5.24 5.83-5.24 10.01v4.71l.01-.02ZM302.26 105.15v-1.47h4.3V83.31h-4.3v-1.47c3.47.12 7.06-.12 10.66-.23v22.08h4.36v1.47h-15.01l-.01-.01Zm7.01-30.85c-1.83 0-3.18-1.83-3.18-3.53 0-1.59 1.59-3.18 3.18-3.18 1.71 0 3.47 1.41 3.47 3.18 0 2-1.47 3.53-3.47 3.53ZM329.51 87.14h.12c1.88-3.65 4.53-5.65 8.77-5.65 7.83 0 7.18 5.48 7.18 11.3v10.89h3.71v1.47h-13.66v-1.47h3.71v-10.6c0-5.48.59-9.48-3.36-9.48-2.53 0-4.83 2.71-5.71 4.89-.77 1.94-.77 4.65-.77 7.42v7.77h3.71v1.47h-13.95v-1.47h4V83.31h-4v-1.47c3 .12 6.6-.12 10.24-.24v5.53l.01.01Z"></path><path fill="#3A5469" d="M412.659 103.193v-6.29h3.188c.256 0 .534.074.835.222.301.142.557.364.767.665.216.295.324.67.324 1.125 0 .46-.111.852-.332 1.176a2.242 2.242 0 0 1-.81.724c-.313.165-.608.247-.886.247h-2.302v-1.022h1.875c.188 0 .39-.094.606-.282.221-.187.332-.468.332-.843 0-.387-.111-.648-.332-.785-.216-.136-.407-.204-.571-.204h-1.313v5.267h-1.381Zm3.801-2.966 1.569 2.966h-1.517l-1.534-2.966h1.482Zm-1.414 6.716a6.678 6.678 0 0 1-2.651-.528 6.864 6.864 0 0 1-3.639-3.64 6.67 6.67 0 0 1-.528-2.65c0-.943.176-1.827.528-2.65a6.85 6.85 0 0 1 1.466-2.174 6.85 6.85 0 0 1 2.173-1.466 6.673 6.673 0 0 1 2.651-.528c.943 0 1.826.176 2.65.528a6.855 6.855 0 0 1 3.639 3.64c.353.823.529 1.707.529 2.65 0 .943-.176 1.827-.529 2.65a6.849 6.849 0 0 1-3.639 3.64 6.673 6.673 0 0 1-2.65.528Zm0-1.636a5.01 5.01 0 0 0 2.608-.699 5.296 5.296 0 0 0 1.875-1.875 5.01 5.01 0 0 0 .699-2.608c0-.955-.233-1.824-.699-2.608a5.294 5.294 0 0 0-1.875-1.875 5.01 5.01 0 0 0-2.608-.699c-.955 0-1.824.233-2.608.699a5.294 5.294 0 0 0-1.875 1.875 5.009 5.009 0 0 0-.699 2.608c0 .954.233 1.824.699 2.608a5.296 5.296 0 0 0 1.875 1.875 5.007 5.007 0 0 0 2.608.699Z"></path></svg>
