<svg width="1083" height="179" viewBox="0 0 1083 179" fill="none" xmlns="http://www.w3.org/2000/svg">
<path fill-rule="evenodd" clip-rule="evenodd" d="M141.638 91.8071H119.594C117.019 98.0367 113.208 103.653 108.418 108.402C92.0396 124.64 66.8027 127.908 46.8708 116.674V143.941H69.4294C89.5674 144.707 108.933 137.201 123.199 123.057C132.007 114.376 138.341 103.653 141.638 91.8071ZM90.0824 54.7873C80.1937 44.9834 64.2275 44.9834 54.3388 54.7873C44.4501 64.5912 44.4501 80.4203 54.3388 90.2242C64.2275 100.028 80.1937 100.028 90.0824 90.2242C99.9712 80.4203 99.9712 64.5912 90.0824 54.7873ZM0.105337 143.941H20.9128V72.4547C20.9128 58.9233 26.2693 46.1068 35.9005 36.5072C55.9354 16.6441 88.3828 16.6441 108.366 36.5072C113.156 41.2559 116.967 46.8727 119.543 53.1023H141.586C138.238 41.2559 131.904 30.584 123.148 21.8524C94.9753 -6.07841 49.2914 -6.07841 21.1189 21.8524C6.85232 35.9965 -0.718742 55.1958 0.0538144 75.161V143.941H0.105337Z" fill="#AD1E22"/>
<path fill-rule="evenodd" clip-rule="evenodd" d="M185.852 44.5565V72.6016H206.201C224.489 72.6016 224.489 44.5565 206.201 44.5565H185.852ZM185.852 78.9871V99.3696H179V38.0688H180.133C188.84 38.0688 197.546 38.0688 206.201 38.0688C233.505 38.0688 233.505 78.9871 206.201 78.9871H185.852Z" fill="#6D6E71"/>
<path fill-rule="evenodd" clip-rule="evenodd" d="M248.503 44.5563V70.5069H268.44C277.095 70.5069 282.246 66.2159 282.349 57.5316C282.452 49.7158 276.683 44.5563 268.955 44.5563H248.503ZM271.686 76.6881L292.756 99.3694H283.637L263.082 77.0457H248.503V99.3694H241.651V38.0686H242.785C251.491 38.0686 260.249 38.0686 268.955 38.0686C280.546 38.0686 289.51 45.8845 289.613 57.5827C289.665 68.719 282.195 75.7686 271.686 76.6881Z" fill="#6D6E71"/>
<path fill-rule="evenodd" clip-rule="evenodd" d="M309.68 44.6585V65.3985H344.506V71.784H309.68V92.7285H347.236V99.3694H302.932V38.0686H346.206V44.6585H309.68Z" fill="#6D6E71"/>
<path fill-rule="evenodd" clip-rule="evenodd" d="M413.252 49.6136L392.234 81.5411H389.452L368.278 49.5625V99.3694H361.427V38.0686H362.56C364.363 38.0686 366.166 38.0686 367.969 38.0686H368.588L390.74 71.5286L412.634 38.0686H420.001V99.3694H413.201V49.6136H413.252Z" fill="#6D6E71"/>
<path d="M444.295 38.0686H437.495V99.3694H444.295V38.0686Z" fill="#6D6E71"/>
<path fill-rule="evenodd" clip-rule="evenodd" d="M502.796 37.6829H509.596V75.4851C509.596 107.821 461.789 107.872 461.789 75.4851V37.6829H468.589V75.4851C468.589 99.3414 502.848 99.2392 502.848 75.4851V37.6829H502.796Z" fill="#6D6E71"/>
<path fill-rule="evenodd" clip-rule="evenodd" d="M577.232 49.5625L556.213 81.4901H553.431L532.258 49.5625V99.3695H525.406V38.0686H526.54C528.343 38.0686 530.197 38.0686 532 38.0686H532.619L554.771 71.5287L576.665 38.0686H584.032V99.3695H577.232V49.5625Z" fill="#6D6E71"/>
<path fill-rule="evenodd" clip-rule="evenodd" d="M671.937 85.6029L676.625 89.9961L675.801 90.8134C669.877 96.7392 661.737 100.009 653.34 100.009C634.588 100.009 621.76 87.5441 621.606 69.0516C621.451 50.406 634.485 37.4307 653.34 37.4307C661.737 37.4307 669.877 40.7 675.801 46.6258L676.677 47.4942L671.783 51.6831L671.01 50.9168C666.322 46.2171 659.934 43.7651 653.288 43.7651C637.988 43.7651 628.148 53.9308 628.251 68.8984C628.406 83.6617 638.246 93.572 653.288 93.572C659.934 93.572 666.374 91.0178 671.113 86.4202L671.937 85.6029Z" fill="#6D6E71"/>
<path fill-rule="evenodd" clip-rule="evenodd" d="M718.97 43.5865C703.825 43.5865 694.552 54.0077 694.603 68.6688C694.706 82.9213 704.082 93.8022 718.97 93.8022C733.859 93.8022 743.389 82.9724 743.389 68.6688C743.389 54.1609 734.013 43.5865 718.97 43.5865ZM718.97 37.1499C737.929 37.1499 750.189 50.3807 750.086 68.771C749.983 86.9058 737.722 100.29 718.97 100.29C700.167 100.29 687.854 86.7526 687.854 68.5666C687.854 50.2274 700.064 37.1499 718.97 37.1499Z" fill="#6D6E71"/>
<path fill-rule="evenodd" clip-rule="evenodd" d="M807.391 84.8623V38.0693H814.191V99.3701H810.739L772.308 52.6794V99.3701H765.456V38.0693H769.062L807.391 84.8623Z" fill="#6D6E71"/>
<path fill-rule="evenodd" clip-rule="evenodd" d="M847.981 44.4804H826.499V38.146H876.367V44.4804H854.833V99.2938H847.981V44.4804Z" fill="#6D6E71"/>
<path fill-rule="evenodd" clip-rule="evenodd" d="M898.899 78.3747H927.336L913.117 46.3449L898.899 78.3747ZM930.169 84.8624H896.169L889.729 99.3703H882.311L910.026 38.0693H916.518L944.233 99.3703H936.815L930.169 84.8624Z" fill="#6D6E71"/>
<path fill-rule="evenodd" clip-rule="evenodd" d="M998.703 85.6029L1003.39 89.9961L1002.57 90.8134C996.591 96.7392 988.503 100.009 980.106 100.009C961.354 100.009 948.526 87.5441 948.371 69.0516C948.217 50.406 961.251 37.4307 980.106 37.4307C988.503 37.4307 996.642 40.7 1002.57 46.6258L1003.44 47.4942L998.6 51.6831L997.827 50.9168C993.088 46.2171 986.751 43.7651 980.106 43.7651C964.805 43.7651 954.966 53.9308 955.069 68.8984C955.223 83.6617 965.063 93.572 980.106 93.572C986.751 93.572 993.191 91.0178 997.93 86.4202L998.703 85.6029Z" fill="#6D6E71"/>
<path fill-rule="evenodd" clip-rule="evenodd" d="M1033.22 44.4804H1011.74V38.146H1061.55V44.4804H1040.07V99.2938H1033.22V44.4804Z" fill="#6D6E71"/>
<path d="M461.984 178.148C464.918 178.388 467.851 178.448 470.964 178.448C478.746 178.448 484.853 176.173 488.385 172.282C492.036 168.271 493.653 162.943 493.653 157.016C493.653 150.91 491.857 146.361 488.624 143.008C485.272 139.476 479.704 137.501 472.341 137.501C468.51 137.501 465.097 137.86 461.984 138.399V178.148ZM464.858 140.554C466.594 140.195 469.048 139.895 472.161 139.895C485.152 139.895 490.839 146.899 490.719 157.136C490.719 168.81 484.314 176.053 471.383 176.053C468.809 176.053 466.474 175.993 464.858 175.754V140.554Z" fill="#4C4C4D"/>
<path d="M522.706 163.482C522.826 162.943 522.826 162.524 522.826 161.746C522.826 157.615 521.03 148.755 511.631 148.755C504.208 148.755 498.7 154.742 498.7 164.32C498.7 172.761 503.849 178.747 512.11 178.747C517.139 178.747 520.072 177.49 521.149 176.891L520.431 174.676C518.815 175.455 516.66 176.293 512.469 176.293C506.543 176.293 501.514 172.641 501.514 163.482H522.706ZM501.694 161.207C502.232 156.777 504.926 151.15 511.272 151.15C518.216 151.15 519.892 157.196 519.832 161.207H501.694Z" fill="#4C4C4D"/>
<path d="M530.15 178.148H533.024V135.585H530.15V178.148Z" fill="#4C4C4D"/>
<path d="M545.71 178.148V149.414H542.836V178.148H545.71ZM544.213 143.667C545.65 143.667 546.548 142.529 546.548 141.212C546.548 139.835 545.59 138.698 544.273 138.698C542.956 138.698 541.938 139.895 541.938 141.212C541.938 142.529 542.836 143.667 544.153 143.667H544.213Z" fill="#4C4C4D"/>
<path d="M551.396 149.414L562.65 178.148H565.165L576.838 149.414H573.845L567.02 167.253C565.943 170.007 564.865 172.521 564.087 174.916H563.967C563.189 172.461 562.291 170.067 561.154 167.253L554.449 149.414H551.396Z" fill="#4C4C4D"/>
<path d="M603.616 163.482C603.736 162.943 603.736 162.524 603.736 161.746C603.736 157.615 601.94 148.755 592.541 148.755C585.118 148.755 579.611 154.742 579.611 164.32C579.611 172.761 584.759 178.747 593.02 178.747C598.049 178.747 600.982 177.49 602.06 176.891L601.341 174.676C599.725 175.455 597.57 176.293 593.379 176.293C587.453 176.293 582.424 172.641 582.424 163.482H603.616ZM582.604 161.207C583.143 156.777 585.836 151.15 592.182 151.15C599.126 151.15 600.803 157.196 600.743 161.207H582.604Z" fill="#4C4C4D"/>
<path d="M611 178.148H613.874V162.284C613.874 161.327 613.934 160.369 614.113 159.531C614.892 154.921 617.705 151.509 621.656 151.509C622.195 151.509 622.614 151.509 623.033 151.569V148.875C622.674 148.815 622.255 148.755 621.836 148.755C617.945 148.755 614.952 151.569 613.694 155.22H613.515L613.395 149.414H610.761C610.941 152.227 611 155.161 611 158.034V178.148Z" fill="#4C4C4D"/>
<path d="M641.751 171.444C641.751 173.599 641.691 176.113 641.512 178.148H644.086L644.325 173H644.445C646.72 176.891 650.072 178.807 654.742 178.807C661.027 178.807 667.553 173.718 667.553 163.482C667.553 154.861 662.524 148.755 655.28 148.755C650.192 148.755 646.66 151.09 644.744 154.801H644.625V135.585H641.751V171.444ZM644.625 161.327C644.625 160.309 644.804 159.531 644.984 158.812C646.361 154.023 650.372 151.15 654.562 151.15C661.087 151.15 664.679 156.956 664.679 163.542C664.679 171.025 660.908 176.412 654.323 176.412C649.833 176.412 646.121 173.539 644.864 169.169C644.684 168.45 644.625 167.732 644.625 167.074V161.327Z" fill="#4C4C4D"/>
<path d="M696.991 149.414H694.118V167.313C694.118 168.45 693.878 169.588 693.579 170.486C692.322 173.359 689.269 176.293 685.078 176.293C679.391 176.293 677.476 171.803 677.476 165.577V149.414H674.602V166.116C674.602 176.951 680.768 178.807 684.42 178.807C689.508 178.807 692.801 175.694 694.238 173H694.357L694.537 178.148H697.231C697.051 175.933 696.991 173.659 696.991 171.144V149.414Z" fill="#4C4C4D"/>
<path d="M704.429 176.772C706.345 177.969 708.979 178.747 711.733 178.747C717.6 178.747 721.431 175.455 721.431 170.546C721.431 166.176 718.677 163.841 714.008 161.985C710.116 160.369 708.081 159.112 708.081 156.118C708.081 153.484 709.997 151.15 713.648 151.15C716.522 151.15 718.378 152.167 719.395 152.886L720.473 150.551C719.036 149.533 716.761 148.755 714.127 148.755C708.56 148.755 705.267 152.347 705.267 156.537C705.267 160.01 707.842 162.584 712.571 164.38C716.702 166.056 718.617 167.732 718.617 170.905C718.617 173.898 716.462 176.353 711.912 176.353C709.338 176.353 707.004 175.335 705.447 174.377L704.429 176.772Z" fill="#4C4C4D"/>
<path d="M731.85 178.148V149.414H728.977V178.148H731.85ZM730.353 143.667C731.79 143.667 732.688 142.529 732.688 141.212C732.688 139.835 731.73 138.698 730.413 138.698C729.096 138.698 728.079 139.895 728.079 141.212C728.079 142.529 728.977 143.667 730.294 143.667H730.353Z" fill="#4C4C4D"/>
<path d="M741.487 178.148H744.361V160.309C744.361 159.411 744.54 158.453 744.72 157.795C745.857 154.023 749.329 151.15 753.34 151.15C759.267 151.15 761.302 155.879 761.302 161.147V178.148H764.176V160.908C764.176 150.132 756.872 148.755 754.119 148.755C749.449 148.755 745.797 151.329 744.241 154.562H744.121L743.942 149.414H741.248C741.427 151.688 741.487 153.664 741.487 156.298V178.148Z" fill="#4C4C4D"/>
<path d="M795.193 163.482C795.313 162.943 795.313 162.524 795.313 161.746C795.313 157.615 793.517 148.755 784.118 148.755C776.695 148.755 771.188 154.742 771.188 164.32C771.188 172.761 776.336 178.747 784.597 178.747C789.626 178.747 792.559 177.49 793.637 176.891L792.919 174.676C791.302 175.455 789.147 176.293 784.957 176.293C779.03 176.293 774.001 172.641 774.001 163.482H795.193ZM774.181 161.207C774.72 156.777 777.414 151.15 783.759 151.15C790.704 151.15 792.38 157.196 792.32 161.207H774.181Z" fill="#4C4C4D"/>
<path d="M800.423 176.772C802.338 177.969 804.972 178.747 807.726 178.747C813.593 178.747 817.424 175.455 817.424 170.546C817.424 166.176 814.67 163.841 810.001 161.985C806.11 160.369 804.074 159.112 804.074 156.118C804.074 153.484 805.99 151.15 809.642 151.15C812.515 151.15 814.371 152.167 815.389 152.886L816.466 150.551C815.03 149.533 812.755 148.755 810.121 148.755C804.553 148.755 801.261 152.347 801.261 156.537C801.261 160.01 803.835 162.584 808.564 164.38C812.695 166.056 814.61 167.732 814.61 170.905C814.61 173.898 812.455 176.353 807.906 176.353C805.332 176.353 802.997 175.335 801.44 174.377L800.423 176.772Z" fill="#4C4C4D"/>
<path d="M822.755 176.772C824.67 177.969 827.304 178.747 830.058 178.747C835.925 178.747 839.756 175.455 839.756 170.546C839.756 166.176 837.002 163.841 832.333 161.985C828.442 160.369 826.406 159.112 826.406 156.118C826.406 153.484 828.322 151.15 831.974 151.15C834.847 151.15 836.703 152.167 837.721 152.886L838.798 150.551C837.362 149.533 835.087 148.755 832.453 148.755C826.885 148.755 823.593 152.347 823.593 156.537C823.593 160.01 826.167 162.584 830.896 164.38C835.027 166.056 836.943 167.732 836.943 170.905C836.943 173.898 834.788 176.353 830.238 176.353C827.664 176.353 825.329 175.335 823.772 174.377L822.755 176.772Z" fill="#4C4C4D"/>
<path d="M879.434 174.616C877.878 175.335 875.663 176.293 872.25 176.293C865.605 176.293 860.876 171.384 860.876 163.841C860.876 157.076 864.827 151.21 872.55 151.21C875.722 151.21 877.937 152.048 879.314 152.886L880.332 150.551C879.254 149.773 876.321 148.755 872.789 148.755C864.229 148.755 858.003 154.921 858.003 164.08C858.003 172.701 863.51 178.747 871.771 178.747C875.962 178.747 878.955 177.49 880.212 176.891L879.434 174.616Z" fill="#4C4C4D"/>
<path d="M897.949 178.807C904.295 178.807 911.658 174.197 911.658 163.542C911.658 154.742 906.271 148.755 898.309 148.755C891.185 148.755 884.719 154.203 884.719 164.02C884.719 173 890.466 178.807 897.89 178.807H897.949ZM898.009 176.412C892.143 176.412 887.593 171.025 887.593 163.841C887.593 157.675 890.885 151.15 898.249 151.15C905.852 151.15 908.785 158.393 908.785 163.661C908.785 171.025 904.056 176.412 898.069 176.412H898.009Z" fill="#4C4C4D"/>
<path d="M918.975 178.148H921.849V160.309C921.849 159.411 922.028 158.453 922.208 157.795C923.345 154.023 926.818 151.15 930.828 151.15C936.755 151.15 938.79 155.879 938.79 161.147V178.148H941.664V160.908C941.664 150.132 934.36 148.755 931.607 148.755C926.937 148.755 923.286 151.329 921.729 154.562H921.609L921.43 149.414H918.736C918.915 151.688 918.975 153.664 918.975 156.298V178.148Z" fill="#4C4C4D"/>
<path d="M952.148 144.146V149.414H947.299V151.748H952.148V169.887C952.148 172.821 952.627 175.275 953.944 176.772C955.022 178.089 956.758 178.747 958.853 178.747C960.589 178.747 961.906 178.448 962.864 178.089L962.505 175.933C961.786 176.173 960.709 176.353 959.212 176.353C956.159 176.353 955.022 174.078 955.022 170.426V151.748H963.223V149.414H955.022V143.068L952.148 144.146Z" fill="#4C4C4D"/>
<path d="M987.444 160.069C987.444 154.981 985.827 148.755 977.506 148.755C974.932 148.755 971.699 149.473 969.065 151.21L969.963 153.305C972.059 151.808 974.693 151.15 977.207 151.15C984.031 151.09 984.57 156.777 984.57 159.591V160.369C972.837 160.249 967.03 164.26 967.03 170.905C967.03 174.736 969.664 178.807 975.471 178.807C980.08 178.807 983.253 176.233 984.69 174.018H984.81L985.229 178.148H987.863C987.503 175.933 987.444 173.599 987.444 171.324V160.069ZM984.57 168.929C984.57 169.408 984.51 170.067 984.271 170.665C983.313 173.479 980.559 176.412 975.77 176.412C972.777 176.412 970.023 174.557 970.023 170.426C970.023 163.542 978.284 162.584 984.57 162.763V168.929Z" fill="#4C4C4D"/>
<path d="M1015.77 174.616C1014.21 175.335 1011.99 176.293 1008.58 176.293C1001.94 176.293 997.208 171.384 997.208 163.841C997.208 157.076 1001.16 151.21 1008.88 151.21C1012.05 151.21 1014.27 152.048 1015.65 152.886L1016.66 150.551C1015.59 149.773 1012.65 148.755 1009.12 148.755C1000.56 148.755 994.334 154.921 994.334 164.08C994.334 172.701 999.842 178.747 1008.1 178.747C1012.29 178.747 1015.29 177.49 1016.54 176.891L1015.77 174.616Z" fill="#4C4C4D"/>
<path d="M1025.17 144.146V149.414H1020.32V151.748H1025.17V169.887C1025.17 172.821 1025.64 175.275 1026.96 176.772C1028.04 178.089 1029.78 178.747 1031.87 178.747C1033.61 178.747 1034.92 178.448 1035.88 178.089L1035.52 175.933C1034.8 176.173 1033.73 176.353 1032.23 176.353C1029.18 176.353 1028.04 174.078 1028.04 170.426V151.748H1036.24V149.414H1028.04V143.068L1025.17 144.146Z" fill="#4C4C4D"/>
<path d="M1040.35 176.772C1042.26 177.969 1044.9 178.747 1047.65 178.747C1053.52 178.747 1057.35 175.455 1057.35 170.546C1057.35 166.176 1054.59 163.841 1049.93 161.985C1046.03 160.369 1044 159.112 1044 156.118C1044 153.484 1045.91 151.15 1049.57 151.15C1052.44 151.15 1054.3 152.167 1055.31 152.886L1056.39 150.551C1054.95 149.533 1052.68 148.755 1050.05 148.755C1044.48 148.755 1041.19 152.347 1041.19 156.537C1041.19 160.01 1043.76 162.584 1048.49 164.38C1052.62 166.056 1054.54 167.732 1054.54 170.905C1054.54 173.898 1052.38 176.353 1047.83 176.353C1045.26 176.353 1042.92 175.335 1041.36 174.377L1040.35 176.772Z" fill="#4C4C4D"/>
</svg>
