<svg width="191" height="40" viewBox="0 0 191 40" fill="none" xmlns="http://www.w3.org/2000/svg">
<path d="M48.1978 36.1173C48.1978 33.9171 49.8731 32.292 52.1403 32.292C53.2348 32.292 54.2232 32.655 54.8878 33.3866L54.3852 33.8947C53.7709 33.2693 53.0226 33.0012 52.1627 33.0012C50.3478 33.0012 48.9852 34.3359 48.9852 36.1173C48.9852 37.8986 50.3478 39.2333 52.1627 39.2333C53.0226 39.2333 53.7709 38.9652 54.3852 38.3342L54.8878 38.8368C54.2232 39.5683 53.2348 39.9425 52.1291 39.9425C49.8731 39.9425 48.1978 38.323 48.1978 36.1173Z" fill="#908B99"/>
<path d="M56.814 36.6644V32.3589H57.607V36.6309C57.607 38.4123 58.4446 39.2276 59.9077 39.2276C61.3708 39.2276 62.2196 38.4123 62.2196 36.6309V32.3589H62.9902V36.6644C62.9902 38.8255 61.8287 39.9424 59.9077 39.9424C57.9867 39.9424 56.814 38.8255 56.814 36.6644Z" fill="#908B99"/>
<path d="M66.4917 32.3589H65.6987V39.8809H66.4917V32.3589Z" fill="#908B99"/>
<path d="M68.5356 38.965L68.8483 38.3507C69.3844 38.8757 70.3393 39.2666 71.3277 39.2666C72.735 39.2666 73.3493 38.6746 73.3493 37.9319C73.3493 35.8713 68.7199 37.139 68.7199 34.358C68.7199 33.2523 69.5799 32.2974 71.4897 32.2974C72.3385 32.2974 73.2208 32.5431 73.8183 32.9619L73.5503 33.5985C72.9081 33.1797 72.1542 32.9731 71.4897 32.9731C70.116 32.9731 69.5017 33.5874 69.5017 34.3357C69.5017 36.3963 74.131 35.151 74.131 37.8928C74.131 38.9985 73.2487 39.9423 71.3277 39.9423C70.1997 39.9423 69.094 39.5458 68.5356 38.965Z" fill="#908B99"/>
<path d="M76.9624 32.3589H76.1694V39.8809H76.9624V32.3589Z" fill="#908B99"/>
<path d="M85.2266 32.3589V38.4625L80.3795 32.3589H79.7261V39.8809H80.5191V33.7773L85.355 39.8809H86.0084V32.3589H85.2266Z" fill="#908B99"/>
<path d="M88.7729 32.3589V39.8809H94.0891V39.1885H89.566V36.3964H93.4526V35.7207H89.566V33.0458H93.9273V32.3589H88.7729Z" fill="#908B99"/>
<path d="M100.349 33.8946C100.349 34.3357 100.511 34.6484 101.198 35.3465C102.281 34.721 102.639 34.3469 102.639 33.8108C102.639 33.2747 102.242 32.8782 101.544 32.8782C100.79 32.8782 100.355 33.2971 100.355 33.9002M103.286 38.4625L101.019 36.1339C99.8127 36.8207 99.4497 37.2954 99.4497 37.9599C99.4497 38.7752 100.181 39.3113 101.265 39.3113C102.08 39.3113 102.767 39.0321 103.286 38.4625ZM104.777 39.9982L103.733 38.926C103.102 39.6017 102.242 39.9479 101.22 39.9479C99.7457 39.9479 98.6958 39.1717 98.6958 38.0381C98.6958 37.1446 99.2096 36.4913 100.584 35.6927C99.8518 34.9388 99.6396 34.4921 99.6396 33.9113C99.6396 32.9564 100.382 32.3086 101.538 32.3086C102.599 32.3086 103.286 32.8671 103.286 33.7996C103.286 34.5535 102.834 35.0784 101.611 35.7876L103.672 37.9152C103.895 37.5188 104.068 37.0329 104.174 36.4633L104.794 36.6588C104.654 37.3345 104.431 37.9152 104.13 38.3899L105.202 39.4956L104.761 39.9982H104.777Z" fill="#908B99"/>
<path d="M112.64 33.1854L114.444 37.2228H110.836L112.64 33.1854ZM112.255 32.3589L108.815 39.8809H109.641L110.546 37.8706H114.734L115.639 39.8809H116.476L113.042 32.3589H112.26H112.255Z" fill="#908B99"/>
<path d="M123.222 36.1173H123.987V38.9876C123.278 39.6186 122.267 39.9425 121.228 39.9425C118.939 39.9425 117.264 38.323 117.264 36.1173C117.264 33.9115 118.939 32.292 121.24 32.292C122.379 32.292 123.367 32.655 124.032 33.3754L123.54 33.878C122.904 33.2525 122.155 32.9957 121.273 32.9957C119.414 32.9957 118.051 34.3191 118.051 36.1117C118.051 37.9042 119.414 39.2277 121.262 39.2277C121.982 39.2277 122.647 39.0657 123.228 38.6469V36.1117L123.222 36.1173Z" fill="#908B99"/>
<path d="M126.539 32.3589V39.8809H131.855V39.1885H127.338V36.3964H131.224V35.7207H127.338V33.0458H131.699V32.3589H126.539Z" fill="#908B99"/>
<path d="M139.539 32.3589V38.4625L134.692 32.3589H134.039V39.8809H134.832V33.7773L139.668 39.8809H140.321V32.3589H139.539Z" fill="#908B99"/>
<path d="M142.415 36.1173C142.415 33.9171 144.09 32.292 146.358 32.292C147.452 32.292 148.441 32.655 149.105 33.3866L148.603 33.8947C147.988 33.2693 147.24 33.0012 146.38 33.0012C144.565 33.0012 143.203 34.3359 143.203 36.1173C143.203 37.8986 144.565 39.2333 146.38 39.2333C147.24 39.2333 147.988 38.9652 148.603 38.3342L149.105 38.8368C148.441 39.5683 147.452 39.9425 146.346 39.9425C144.09 39.9425 142.415 38.323 142.415 36.1173Z" fill="#908B99"/>
<path d="M151.121 32.3589V39.8809H156.437V39.1885H151.914V36.3964H155.801V35.7207H151.914V33.0458H156.275V32.3589H151.121Z" fill="#908B99"/>
<path d="M165.769 32.3589L162.535 37.932L159.274 32.3589H158.615V39.8809H159.38V33.8946L162.334 38.9204H162.708L165.662 33.8611V39.8809H166.427V32.3589H165.769Z" fill="#908B99"/>
<path d="M169.186 32.3589V39.8809H174.502V39.1885H169.985V36.3964H173.871V35.7207H169.985V33.0458H174.34V32.3589H169.186Z" fill="#908B99"/>
<path d="M182.186 32.3589V38.4625L177.339 32.3589H176.686V39.8809H177.479V33.7773L182.315 39.8809H182.968V32.3589H182.186Z" fill="#908B99"/>
<path d="M184.548 32.3589V33.0458H187.19V39.8809H187.988V33.0458H190.63V32.3589H184.548Z" fill="#908B99"/>
<path d="M53.2794 17.6611H51.1518V21.5924H53.2794C54.8709 21.5924 55.6806 20.8497 55.6806 19.6268C55.6806 18.4038 54.8765 17.6611 53.2794 17.6611ZM55.7253 26.8081L53.553 23.6698H51.1518V26.8081H48.5439V15.5391H53.4246C56.4345 15.5391 58.322 17.1027 58.322 19.6268C58.322 21.3188 57.4676 22.5585 56.0045 23.184L58.5342 26.8081H55.7309H55.7253Z" fill="#55515A"/>
<path d="M69.5352 22.4077L67.7482 18.0911L65.9613 22.4077H69.5352ZM70.3561 24.3902H65.1236L64.1241 26.8081H61.4492L66.4694 15.5391H69.0438L74.0864 26.8081H71.3501L70.3505 24.3902H70.3561Z" fill="#55515A"/>
<path d="M79.933 15.5332H77.3252V26.8022H79.933V15.5332Z" fill="#55515A"/>
<path d="M84.2944 25.6967L85.1823 23.731C86.1316 24.4235 87.55 24.9093 88.9014 24.9093C90.4483 24.9093 91.0737 24.3956 91.0737 23.7031C91.0737 21.5923 84.5178 23.0442 84.5178 18.856C84.5178 16.9406 86.0646 15.3491 89.27 15.3491C90.6884 15.3491 92.1347 15.6841 93.1845 16.3487L92.3804 18.3311C91.3362 17.7336 90.2528 17.4488 89.2588 17.4488C87.712 17.4488 87.1145 18.0295 87.1145 18.7331C87.1145 20.8105 93.6704 19.3753 93.6704 23.5188C93.6704 25.4007 92.1068 27.0146 88.8903 27.0146C87.1033 27.0146 85.2996 26.4841 84.3 25.7079" fill="#55515A"/>
<path d="M106.374 21.1679C106.374 19.0291 104.861 17.5605 102.851 17.5605C100.84 17.5605 99.3215 19.0236 99.3215 21.1679C99.3215 23.3123 100.835 24.7753 102.851 24.7753C104.867 24.7753 106.374 23.3123 106.374 21.1679ZM96.6802 21.1679C96.6802 17.8174 99.288 15.3379 102.845 15.3379C106.402 15.3379 109.01 17.8006 109.01 21.1679C109.01 24.5352 106.386 26.9979 102.845 26.9979C99.3048 26.9979 96.6802 24.5185 96.6802 21.1679Z" fill="#55515A"/>
<path d="M123.378 15.5332V26.8078H121.24L115.616 19.9615V26.8078H113.042V15.5332H115.198L120.804 22.3795V15.5332H123.378Z" fill="#55515A"/>
<path d="M145.827 15.5332V26.8078H143.214V22.184H138.093V26.8078H135.485V15.5332H138.093V19.9782H143.214V15.5332H145.827Z" fill="#55515A"/>
<path d="M159.134 21.1679C159.134 19.0291 157.621 17.5605 155.611 17.5605C153.6 17.5605 152.082 19.0236 152.082 21.1679C152.082 23.3123 153.595 24.7753 155.611 24.7753C157.627 24.7753 159.134 23.3123 159.134 21.1679ZM149.44 21.1679C149.44 17.8174 152.048 15.3379 155.605 15.3379C159.162 15.3379 161.77 17.8006 161.77 21.1679C161.77 24.5352 159.146 26.9979 155.605 26.9979C152.065 26.9979 149.44 24.5185 149.44 21.1679Z" fill="#55515A"/>
<path d="M175.541 26.8078L175.524 20.0452L172.207 25.6127H171.035L167.734 20.1904V26.8078H165.288V15.5332H167.444L171.66 22.5414L175.815 15.5332H177.959L177.987 26.8078H175.541Z" fill="#55515A"/>
<path d="M181.996 15.5332V26.8078H190.725V24.7137H184.593V22.1058H189.825V20.0732H184.593V17.6273H190.518V15.5332H181.996Z" fill="#55515A"/>
<path d="M13.7875 12.4175C10.6827 12.4175 7.81795 13.445 5.51724 15.1762C2.16669 17.6891 0 21.6986 0 26.2051V39.9926H13.7875C18.2996 39.9926 22.3035 37.8259 24.8164 34.4753C26.5475 32.169 27.575 29.3043 27.575 26.2051C27.575 18.5881 21.3989 12.4175 13.7875 12.4175Z" fill="#D39B00"/>
<path d="M36.1858 12.7523L25.6874 0.969567C24.3975 -0.320395 22.2978 -0.325979 21.0078 0.969567L5.51709 15.1759V20.6931C5.51709 28.31 11.6933 34.4806 19.3046 34.4806H38.6094V18.6046C38.6094 16.41 37.7382 14.3047 36.1858 12.7523Z" fill="#908B99"/>
<path d="M13.7874 12.4175C10.6825 12.4175 7.8178 13.445 5.51709 15.1762V20.6878C5.51709 28.3047 11.6933 34.4753 19.3046 34.4753H24.8219C26.553 32.169 27.5805 29.3043 27.5805 26.2051C27.5805 18.5881 21.4043 12.4175 13.793 12.4175" fill="#55515A"/>
</svg>
